<svg width="54" height="54" viewBox="0 0 54 54" fill="none" xmlns="http://www.w3.org/2000/svg">
<path d="M19.7724 36.1788C19.1348 36.1788 18.4971 36.1268 17.8622 36.0255L17.4736 35.9626L17.4353 35.73C17.2136 34.3589 17.2136 32.9687 17.4353 31.5976L17.4736 31.365L17.7062 31.3267C19.0773 31.105 20.4675 31.105 21.8386 31.3267L22.0356 31.3595L22.0986 31.5484C22.5474 32.9331 22.5474 34.3945 22.0986 35.7792L22.0356 35.9681L21.6826 36.0255C21.0477 36.1295 20.4101 36.1788 19.7724 36.1788ZM18.0456 35.3906C19.2032 35.5713 20.3745 35.5685 21.5321 35.3852C21.8605 34.2549 21.8605 33.0727 21.5321 31.9397C20.3745 31.7728 19.2032 31.77 18.0456 31.9342C17.8814 33.0809 17.8814 34.2412 18.0456 35.3906Z" fill="#C82C31"/>
<path d="M20.8728 34.7284C21.0972 34.0387 21.0972 33.2943 20.8728 32.602C20.1694 32.487 19.4497 32.487 18.7464 32.602C18.6314 33.3053 18.6314 34.025 18.7464 34.7284L18.8285 34.742C19.4771 34.8488 20.1393 34.8488 20.7907 34.742L20.8728 34.7284Z" fill="#C82C31"/>
<path d="M34.8542 30.7739C34.9993 30.3278 34.9993 29.8489 34.8542 29.4028C34.3999 29.3289 33.9374 29.3289 33.4832 29.4028C33.4093 29.8571 33.4093 30.3196 33.4832 30.7739L33.5351 30.7821C33.9539 30.8505 34.3808 30.8505 34.7995 30.7821L34.8515 30.7739H34.8542Z" fill="#02592E"/>
<path d="M25.6428 29.2879C25.7878 28.8418 25.7878 28.3629 25.6428 27.9168C25.1885 27.8429 24.726 27.8429 24.2717 27.9168C24.1978 28.3711 24.1978 28.8336 24.2717 29.2879L24.3237 29.2961C24.7424 29.3645 25.1694 29.3645 25.5881 29.2961L25.6401 29.2879H25.6428Z" fill="#02592E"/>
<path d="M19.7724 22.8348C19.1348 22.8348 18.4971 22.7828 17.8622 22.6815L17.4736 22.6186L17.4353 22.386C17.2136 21.0149 17.2136 19.6247 17.4353 18.2536L17.4736 18.021L17.7062 17.9827C19.0773 17.761 20.4675 17.761 21.8386 17.9827L22.0356 18.0155L22.0986 18.2043C22.5474 19.5891 22.5474 21.0505 22.0986 22.4352L22.0356 22.6241L21.6826 22.6815C21.0477 22.7855 20.4101 22.8348 19.7724 22.8348ZM18.0456 22.0466C19.2032 22.2272 20.3745 22.2245 21.5321 22.0412C21.8605 20.9109 21.8605 19.7287 21.5321 18.5957C20.3745 18.4287 19.2032 18.426 18.0456 18.5902C17.8814 19.7369 17.8814 20.8972 18.0456 22.0439V22.0466Z" fill="#C82C31"/>
<path d="M20.8728 21.3816C21.0972 20.692 21.0972 19.9476 20.8728 19.2552C20.1694 19.1403 19.4497 19.1403 18.7464 19.2552C18.6314 19.9585 18.6314 20.6783 18.7464 21.3816L18.8285 21.3953C19.4771 21.502 20.1393 21.502 20.7907 21.3953L20.8728 21.3816Z" fill="#C82C31"/>
<path d="M33.1163 22.8348C32.4786 22.8348 31.841 22.7828 31.2061 22.6815L30.8175 22.6186L30.7791 22.386C30.5547 21.0149 30.5547 19.6247 30.7791 18.2536L30.8175 18.021L31.0501 17.9827C32.4211 17.761 33.8114 17.761 35.1824 17.9827L35.3795 18.0155L35.4424 18.2043C35.8912 19.5891 35.8912 21.0505 35.4424 22.4352L35.3795 22.6241L35.0265 22.6815C34.3943 22.7855 33.7539 22.8348 33.1163 22.8348ZM31.3894 22.0466C32.547 22.2272 33.7183 22.2245 34.8759 22.0412C35.2043 20.9109 35.2043 19.7287 34.8759 18.5957C33.7183 18.426 32.547 18.426 31.3894 18.5902C31.2252 19.7369 31.2252 20.8972 31.3894 22.0439V22.0466Z" fill="#C82C31"/>
<path d="M34.2165 21.3816C34.4409 20.692 34.4409 19.9476 34.2165 19.2552C33.5132 19.1403 32.7962 19.1403 32.0901 19.2552C31.9752 19.9585 31.9752 20.6755 32.0901 21.3816L32.1722 21.3953C32.8208 21.502 33.4831 21.502 34.1344 21.3953L34.2165 21.3816Z" fill="#C82C31"/>
<path d="M30.3251 29.2797C30.5467 28.7734 30.5467 28.2288 30.3251 27.7225C29.6327 27.6377 27.988 27.6377 27.2956 27.7225C27.1834 28.2397 27.1834 28.7652 27.2956 29.2797L27.3777 29.2906C28.0181 29.3672 29.6053 29.3672 30.243 29.2906L30.3251 29.2797Z" fill="#02592E"/>
<path d="M28.5761 21.6471C28.7977 21.1408 28.7977 20.5962 28.5761 20.0899C27.8837 20.0051 26.2389 20.0051 25.5466 20.0899C25.4344 20.6071 25.4344 21.1326 25.5466 21.6471L25.6287 21.658C26.269 21.7346 27.8563 21.7346 28.494 21.658L28.5761 21.6471Z" fill="#02592E"/>
<path d="M22.4432 29.2797C22.6649 28.7734 22.6649 28.2288 22.4432 27.7225C21.7509 27.6377 20.3415 27.6377 19.6491 27.7225C19.5369 28.2397 19.5369 28.7652 19.6491 29.2797L19.7312 29.2906C20.3716 29.3672 21.7235 29.3672 22.3639 29.2906L22.446 29.2797H22.4432Z" fill="#02592E"/>
<path d="M18.1031 27.6294C18.6094 27.8511 19.154 27.8511 19.6602 27.6294C19.7451 26.9371 19.7451 25.5277 19.6602 24.8353C19.143 24.7231 18.6176 24.7231 18.1031 24.8353L18.0921 24.9174C18.0155 25.5578 18.0155 26.9097 18.0921 27.5501L18.1031 27.6322V27.6294Z" fill="#02592E"/>
<path d="M27.4244 26.0394C27.9307 26.2611 28.4753 26.2611 28.9815 26.0394C29.0664 25.347 29.0664 23.9377 28.9815 23.2453C28.4643 23.1331 27.9389 23.1331 27.4244 23.2453L27.4134 23.3274C27.3368 23.9678 27.3368 25.3197 27.4134 25.9601L27.4244 26.0422V26.0394Z" fill="#02592E"/>
<path d="M24.3236 35.3304C25.1364 35.4919 27.884 35.4919 28.6968 35.3304C28.8309 34.8269 28.8309 34.3151 28.6968 33.8143C27.8704 33.7322 25.1528 33.7322 24.3236 33.8143L24.3072 33.8718C24.1841 34.3343 24.1841 34.8077 24.3072 35.2702L24.3236 35.3277V35.3304Z" fill="#02592E"/>
<path d="M24.3236 32.3338C25.1364 32.4952 30.9272 32.4952 31.74 32.3338C31.8741 31.8302 31.8741 31.3185 31.74 30.8176C30.9135 30.7355 25.1528 30.7355 24.3236 30.8176L24.3072 30.8751C24.1841 31.3376 24.1841 31.8111 24.3072 32.2736L24.3236 32.331V32.3338Z" fill="#02592E"/>
<path d="M28.85 27.7416C29.6628 27.9031 34.0497 27.9031 34.8597 27.7416C34.9938 27.2381 34.9938 26.7263 34.8597 26.2255C34.0332 26.1434 29.6765 26.1434 28.85 26.2255L28.8336 26.283C28.7104 26.7455 28.7104 27.2189 28.8336 27.6814L28.85 27.7389V27.7416Z" fill="#02592E"/>
<path d="M19.1073 26.2611C19.9201 26.4226 24.775 26.4226 25.5878 26.2611C25.7219 25.7576 25.7219 25.2458 25.5878 24.745C24.7613 24.6629 19.9365 24.6629 19.1073 24.745L19.0909 24.8025C18.9677 25.265 18.9677 25.7384 19.0909 26.2009L19.1073 26.2584V26.2611Z" fill="#02592E"/>
<path d="M25.7769 29.3918C25.6154 30.2046 25.6154 32.9523 25.7769 33.765C26.2804 33.8991 26.7922 33.8991 27.293 33.765C27.3751 32.9386 27.3751 30.2211 27.293 29.3918L27.2355 29.3754C26.773 29.2523 26.2996 29.2523 25.8371 29.3754L25.7796 29.3918H25.7769Z" fill="#02592E"/>
<path d="M24.1729 18.6887C24.0114 19.5015 24.0114 22.2491 24.1729 23.0619C24.6764 23.196 25.1882 23.196 25.689 23.0619C25.7711 22.2354 25.7711 19.5179 25.689 18.6887L25.6315 18.6723C25.169 18.5492 24.6956 18.5492 24.2331 18.6723L24.1756 18.6887H24.1729Z" fill="#02592E"/>
<path d="M30.2427 30.8423C30.0812 31.6551 30.0812 32.9988 30.2427 33.8088C30.7462 33.9429 31.258 33.9429 31.7588 33.8088C31.8409 32.9824 31.8409 31.6688 31.7588 30.8423L31.7013 30.8259C31.2388 30.7027 30.7654 30.7027 30.3029 30.8259L30.2454 30.8423H30.2427Z" fill="#02592E"/>
<path d="M33.3848 32.3721C33.2233 33.1849 33.2233 34.5286 33.3848 35.3386C33.8883 35.4727 34.4001 35.4727 34.9009 35.3386C34.983 34.5122 34.983 33.1986 34.9009 32.3721L34.8434 32.3557C34.3809 32.2325 33.9075 32.2325 33.445 32.3557L33.3875 32.3721H33.3848Z" fill="#02592E"/>
<path d="M31.8521 24.7915C31.6906 25.6043 31.6906 26.948 31.8521 27.7581C32.3556 27.8922 32.8674 27.8922 33.3682 27.7581C33.4503 26.9316 33.4503 25.618 33.3682 24.7915L33.3107 24.7751C32.8482 24.6519 32.3748 24.6519 31.9123 24.7751L31.8548 24.7915H31.8521Z" fill="#02592E"/>
<path d="M34.6734 33.8745C33.8606 33.7131 32.7522 33.7131 31.9394 33.8745C31.8053 34.3781 31.8053 34.8898 31.9394 35.3906C32.7659 35.4727 33.8442 35.4727 34.6734 35.3906L34.6898 35.3332C34.8129 34.8707 34.8129 34.3972 34.6898 33.9347L34.6734 33.8773V33.8745Z" fill="#02592E"/>
<path d="M33.9786 8.69988C33.9102 8.41526 33.8007 8.04581 33.6338 7.72836C33.4723 7.40543 33.2643 7.11535 33.0426 6.86357C32.1231 5.87563 31.1735 5.34746 30.4127 4.71528C29.6382 4.10227 29.0444 3.43179 28.5709 2.63815C28.1139 1.80073 27.687 0.924995 27.2628 0H26.5239H25.785C25.3635 0.924995 24.9339 1.79799 24.4769 2.63815C24.0034 3.43452 23.4068 4.10227 22.6351 4.71528C21.8743 5.34746 20.9247 5.8729 20.0024 6.86357C19.7807 7.11535 19.5727 7.40817 19.4113 7.72836C19.2443 8.04581 19.1349 8.41526 19.0665 8.69988C18.9159 9.30742 18.8448 9.92864 18.8612 10.5581C18.8776 11.1875 18.9816 11.8361 19.2334 12.4683C19.4824 13.0977 19.9066 13.7244 20.5114 14.1677C20.8097 14.3894 21.1463 14.5591 21.4911 14.674C21.8551 14.7862 22.1288 14.8601 22.6077 14.8765C23.4451 14.8464 24.091 14.5454 24.6739 14.1595C25.2404 13.7545 25.7439 13.2154 26.0313 12.4847C26.3351 11.7677 26.2803 10.8317 25.9109 10.1613C25.1774 8.79566 23.6805 8.27022 22.4681 8.49736L22.438 9.35668C23.363 9.63856 24.0499 10.2899 24.2223 10.9111C24.3044 11.2204 24.2634 11.4502 24.143 11.7239C24.0335 12.0003 23.7817 12.2849 23.4917 12.523C23.1988 12.7556 22.8212 12.9061 22.5721 12.9171C22.5147 12.9226 22.2547 12.876 22.1096 12.824C21.9427 12.7693 21.7949 12.6954 21.6608 12.5969C21.1244 12.2247 20.8125 11.3955 20.7933 10.5033C20.7796 10.06 20.8289 9.60024 20.9383 9.16238C21.0396 8.71356 21.1846 8.47821 21.461 8.16075C22.0029 7.55048 22.9908 7.04419 23.9022 6.32718C24.8299 5.6266 25.7138 4.66055 26.2201 3.53304C26.3323 3.28401 26.4336 3.02402 26.5211 2.76404C26.6087 3.02676 26.71 3.28401 26.8222 3.53304C27.3312 4.66055 28.2124 5.6266 29.1401 6.32718C30.0515 7.04419 31.0394 7.55048 31.5813 8.16075C31.8604 8.47821 32.0027 8.71356 32.104 9.16238C32.2107 9.60024 32.2599 10.0573 32.249 10.5033C32.2298 11.3955 31.9179 12.222 31.3815 12.5969C31.2501 12.6954 31.0996 12.7693 30.9327 12.824C30.7876 12.876 30.5276 12.9226 30.4702 12.9171C30.2239 12.9061 29.8462 12.7556 29.5534 12.523C29.2633 12.2877 29.0088 12.0003 28.9021 11.7239C28.7816 11.4502 28.7406 11.2204 28.8227 10.9111C28.9951 10.2899 29.682 9.63856 30.607 9.35668L30.5769 8.49736C29.3673 8.27022 27.8703 8.79566 27.1342 10.1613C26.7647 10.8317 26.7127 11.7677 27.0137 12.4847C27.2984 13.2181 27.8046 13.7572 28.3711 14.1595C28.954 14.5454 29.5999 14.8492 30.4373 14.8765C30.9162 14.8629 31.1926 14.7862 31.5539 14.674C31.8987 14.5591 32.2353 14.3894 32.5336 14.1677C33.1384 13.7244 33.5626 13.0977 33.8116 12.4683C34.0634 11.8334 34.1674 11.1875 34.1838 10.5581C34.2002 9.92591 34.1291 9.30468 33.9786 8.69988Z" fill="#02592E"/>
<path d="M45.429 18.5492C45.5822 18.3001 45.7628 17.9608 45.8723 17.6187C45.9845 17.2766 46.0447 16.9236 46.0666 16.5897C46.1159 15.2405 45.8176 14.1951 45.7245 13.2099C45.6096 12.2302 45.6643 11.3353 45.8915 10.4377C46.1597 9.52362 46.4771 8.60136 46.8329 7.649L46.3074 7.12629L45.7847 6.60085C44.8324 6.95662 43.9101 7.27134 42.9961 7.54227C42.0984 7.76941 41.2035 7.82141 40.2238 7.7092C39.2386 7.61616 38.1932 7.31786 36.844 7.36712C36.5074 7.38901 36.1571 7.44922 35.815 7.56142C35.473 7.66815 35.1336 7.85151 34.8846 8.00477C34.3482 8.32769 33.8583 8.7163 33.4232 9.17332C32.9908 9.63035 32.6049 10.1613 32.334 10.788C32.0631 11.4092 31.9208 12.1508 32.0357 12.8925C32.0904 13.2592 32.2081 13.6204 32.3696 13.9433C32.5475 14.28 32.6898 14.5263 33.0182 14.8765C33.6312 15.4485 34.3017 15.6893 34.9858 15.8289C35.6727 15.9438 36.4089 15.9192 37.1286 15.6045C37.8484 15.3117 38.4751 14.6111 38.6858 13.8777C39.1319 12.3916 38.445 10.9631 37.4297 10.2653L36.8002 10.8536C37.2545 11.7075 37.2792 12.6544 36.9617 13.2154C36.8002 13.4918 36.6087 13.6259 36.3323 13.7354C36.0613 13.853 35.6782 13.8777 35.306 13.8393C34.9338 13.7956 34.5616 13.6341 34.3783 13.4672C34.3318 13.4316 34.184 13.2154 34.1156 13.0758C34.0362 12.9198 33.9842 12.7611 33.9596 12.5969C33.8446 11.9538 34.2086 11.1492 34.8271 10.5033C35.1309 10.1804 35.4921 9.89033 35.8752 9.65771C36.2638 9.41415 36.532 9.34847 36.9535 9.31837C37.769 9.27184 38.8226 9.61119 39.9748 9.74802C41.1269 9.90949 42.4323 9.85202 43.5899 9.41141C43.8472 9.31289 44.0989 9.20343 44.348 9.08028C44.2248 9.32658 44.1126 9.58109 44.0168 9.83834C43.579 10.9959 43.5215 12.3013 43.6802 13.4535C43.8198 14.6056 44.1564 15.662 44.1099 16.4748C44.0825 16.8962 44.0168 17.1644 43.7705 17.553C43.5379 17.9389 43.2478 18.2974 42.9249 18.6012C42.2818 19.2169 41.4745 19.5809 40.8314 19.4687C40.6672 19.444 40.5084 19.3921 40.3524 19.3127C40.2129 19.247 39.9967 19.0965 39.9611 19.05C39.7942 18.8666 39.6327 18.4944 39.5889 18.1222C39.5506 17.7501 39.5752 17.3697 39.6929 17.096C39.8024 16.8168 39.9365 16.6253 40.2129 16.4666C40.7739 16.1491 41.7208 16.1737 42.5746 16.628L43.163 15.9986C42.4679 14.9833 41.0366 14.2964 39.5506 14.7424C38.8172 14.9559 38.1166 15.5799 37.8238 16.2996C37.509 17.0194 37.4844 17.7583 37.5993 18.4424C37.7389 19.1266 37.9825 19.7998 38.5517 20.4101C38.902 20.7385 39.1483 20.8808 39.4849 21.0587C39.8078 21.2201 40.1691 21.3406 40.5358 21.3926C41.2774 21.5075 42.0218 21.3652 42.6403 21.0943C43.267 20.8233 43.7952 20.4402 44.2549 20.0051C44.712 19.5699 45.1006 19.0801 45.4235 18.5437L45.429 18.5492Z" fill="#02592E"/>
<path d="M44.3422 34.4547C44.6268 34.3863 44.9963 34.2768 45.3137 34.1099C45.6366 33.9484 45.9267 33.7404 46.1785 33.5188C47.1664 32.5992 47.6946 31.6496 48.3268 30.8888C48.9398 30.1143 49.6103 29.5205 50.4039 29.047C51.2413 28.59 52.1171 28.1631 53.0421 27.7389V27V26.2611C52.1171 25.8397 51.2441 25.41 50.4039 24.953C49.6075 24.4795 48.9398 23.8829 48.3268 23.1112C47.6946 22.3504 47.1692 21.4008 46.1785 20.4785C45.9267 20.2568 45.6339 20.0489 45.3137 19.8874C44.9963 19.7205 44.6268 19.611 44.3422 19.5426C43.7347 19.3921 43.1134 19.3209 42.484 19.3373C41.8546 19.3537 41.206 19.4577 40.5738 19.7095C39.9444 19.9585 39.3177 20.3827 38.8743 20.9875C38.6527 21.2858 38.483 21.6224 38.368 21.9673C38.2558 22.3312 38.1819 22.6049 38.1655 23.0838C38.1956 23.9212 38.4967 24.5671 38.8825 25.15C39.2876 25.7165 39.8267 26.2201 40.5574 26.5074C41.2744 26.8112 42.2103 26.7564 42.8808 26.387C44.2464 25.6536 44.7719 24.1566 44.5447 22.9443L43.6854 22.9142C43.4035 23.8391 42.7522 24.5261 42.131 24.6985C41.8217 24.7806 41.5918 24.7395 41.3182 24.6191C41.0418 24.5096 40.7572 24.2579 40.5191 23.9678C40.2864 23.6749 40.1359 23.2973 40.125 23.0482C40.1195 22.9908 40.166 22.7308 40.218 22.5857C40.2728 22.4188 40.3467 22.271 40.4452 22.1369C40.8174 21.6005 41.6466 21.2886 42.5387 21.2694C42.9821 21.2557 43.4418 21.305 43.8797 21.4145C44.3285 21.5157 44.5639 21.6608 44.8813 21.9372C45.4916 22.479 45.9979 23.467 46.7149 24.3783C47.4155 25.306 48.3815 26.1899 49.509 26.6962C49.7581 26.8084 50.018 26.9097 50.278 26.9973C50.0153 27.0848 49.7581 27.1861 49.509 27.2983C48.3815 27.8073 47.4155 28.6885 46.7149 29.6163C45.9979 30.5276 45.4916 31.5155 44.8813 32.0574C44.5639 32.3365 44.3285 32.4788 43.8797 32.5801C43.4418 32.6868 42.9848 32.7361 42.5387 32.7251C41.6466 32.706 40.8201 32.394 40.4452 31.8576C40.3467 31.7262 40.2728 31.5757 40.218 31.4088C40.166 31.2637 40.1195 31.0038 40.125 30.9463C40.1359 30.7 40.2864 30.3223 40.5191 30.0295C40.7544 29.7394 41.0418 29.4849 41.3182 29.3782C41.5918 29.2578 41.8217 29.2167 42.131 29.2988C42.7522 29.4712 43.4035 30.1581 43.6854 31.0831L44.5447 31.053C44.7719 29.8434 44.2464 28.3464 42.8808 27.6103C42.2103 27.2408 41.2744 27.1888 40.5574 27.4899C39.8239 27.7745 39.2848 28.2808 38.8825 28.8473C38.4967 29.4302 38.1929 30.076 38.1655 30.9134C38.1792 31.3924 38.2558 31.6688 38.368 32.03C38.483 32.3748 38.6527 32.7114 38.8743 33.0097C39.3177 33.6145 39.9444 34.0387 40.5738 34.2878C41.2087 34.5395 41.8546 34.6435 42.484 34.6599C43.1162 34.6764 43.7374 34.6052 44.3422 34.4547Z" fill="#02592E"/>
<path d="M8.69988 19.5398C8.41526 19.6083 8.04581 19.7177 7.72836 19.8847C7.40543 20.0461 7.11535 20.2541 6.86357 20.4758C5.87563 21.3953 5.34746 22.3449 4.71528 23.1057C4.10227 23.8802 3.43179 24.4741 2.63815 24.9475C1.80073 25.4045 0.924995 25.8314 0 26.2556V26.9945V27.7334C0.924995 28.1549 1.79799 28.5845 2.63815 29.0416C3.43452 29.515 4.10227 30.1116 4.71528 30.8833C5.34746 31.6441 5.8729 32.5938 6.86357 33.516C7.11535 33.7377 7.40817 33.9457 7.72836 34.1071C8.04581 34.2741 8.41526 34.3835 8.69988 34.452C9.30742 34.6025 9.92864 34.6736 10.5581 34.6572C11.1875 34.6408 11.8361 34.5368 12.4683 34.285C13.0977 34.036 13.7244 33.6118 14.1677 33.007C14.3894 32.7087 14.5591 32.3721 14.674 32.0273C14.7862 31.6633 14.8601 31.3896 14.8765 30.9107C14.8464 30.0733 14.5454 29.4274 14.1595 28.8445C13.7545 28.278 13.2154 27.7745 12.4847 27.4871C11.7677 27.1834 10.8317 27.2381 10.1613 27.6075C8.79566 28.341 8.27022 29.8379 8.49736 31.0503L9.35668 31.0804C9.63856 30.1554 10.2899 29.4685 10.9111 29.2961C11.2204 29.214 11.4502 29.255 11.7239 29.3754C12.0003 29.4849 12.2849 29.7367 12.523 30.0268C12.7556 30.3196 12.9061 30.6973 12.9171 30.9463C12.9226 31.0038 12.876 31.2637 12.824 31.4088C12.7693 31.5757 12.6954 31.7235 12.5969 31.8576C12.2247 32.394 11.3955 32.706 10.5033 32.7251C10.06 32.7388 9.60024 32.6895 9.16238 32.5801C8.71356 32.4788 8.47821 32.3338 8.16075 32.0574C7.55048 31.5155 7.04419 30.5276 6.32718 29.6163C5.6266 28.6885 4.66055 27.8046 3.53304 27.2983C3.28401 27.1861 3.02402 27.0848 2.76404 26.9973C3.02676 26.9097 3.28401 26.8084 3.53304 26.6962C4.66055 26.1872 5.6266 25.306 6.32718 24.3783C7.04419 23.467 7.55048 22.479 8.16075 21.9372C8.47821 21.658 8.71356 21.5157 9.16238 21.4145C9.60024 21.3077 10.0573 21.2585 10.5033 21.2694C11.3955 21.2886 12.222 21.6006 12.5969 22.1369C12.6954 22.2683 12.7693 22.4188 12.824 22.5858C12.876 22.7308 12.9226 22.9908 12.9171 23.0483C12.9061 23.2946 12.7556 23.6722 12.523 23.965C12.2877 24.2551 12.0003 24.5096 11.7239 24.6164C11.4502 24.7368 11.2204 24.7778 10.9111 24.6957C10.2899 24.5233 9.63856 23.8364 9.35668 22.9114L8.49736 22.9415C8.27022 24.1511 8.79566 25.6481 10.1613 26.3843C10.8317 26.7537 11.7677 26.8057 12.4847 26.5047C13.2181 26.2201 13.7572 25.7138 14.1595 25.1473C14.5454 24.5644 14.8492 23.9185 14.8765 23.0811C14.8629 22.6022 14.7862 22.3258 14.674 21.9645C14.5591 21.6197 14.3894 21.2831 14.1677 20.9848C13.7244 20.38 13.0977 19.9558 12.4683 19.7068C11.8334 19.455 11.1875 19.351 10.5581 19.3346C9.92591 19.3182 9.30468 19.3893 8.69988 19.5398Z" fill="#02592E"/>
<path d="M18.1632 8.00203C17.9141 7.84877 17.5748 7.66815 17.2327 7.55869C16.8906 7.44648 16.5376 7.38628 16.2037 7.36438C14.8545 7.31512 13.8091 7.61342 12.8239 7.70647C11.8442 7.82141 10.9493 7.76667 10.0517 7.53953C9.13761 7.27133 8.21535 6.95388 7.26299 6.59811L6.74028 7.12355L6.21484 7.64626C6.57061 8.59862 6.88533 9.52088 7.15626 10.4349C7.3834 11.3326 7.4354 12.2274 7.3232 13.2072C7.23015 14.1924 6.93185 15.2378 6.98111 16.587C7.00301 16.9236 7.06321 17.2739 7.17542 17.616C7.28215 17.958 7.4655 18.2974 7.61876 18.5464C7.94168 19.0828 8.33029 19.5727 8.78732 20.0078C9.24434 20.4402 9.77525 20.8261 10.402 21.097C11.0232 21.3679 11.7648 21.5102 12.5065 21.3953C12.8732 21.3406 13.2344 21.2229 13.5573 21.0614C13.8939 20.8835 14.1402 20.7412 14.4905 20.4128C15.0625 19.7998 15.3033 19.1293 15.4429 18.4452C15.5578 17.7583 15.5332 17.0221 15.2185 16.3024C14.9257 15.5826 14.2251 14.9559 13.4917 14.7452C12.0056 14.2991 10.5771 14.986 9.87925 16.0013L10.4676 16.6308C11.3215 16.1765 12.2684 16.1518 12.8294 16.4693C13.1058 16.6308 13.2399 16.8223 13.3493 17.0987C13.467 17.3697 13.4917 17.7528 13.4533 18.125C13.4096 18.4972 13.2481 18.8693 13.0812 19.0527C13.0456 19.0992 12.8294 19.247 12.6898 19.3154C12.5338 19.3948 12.3751 19.4468 12.2109 19.4714C11.5678 19.5864 10.7632 19.2224 10.1173 18.6039C9.79441 18.3001 9.50432 17.9389 9.27171 17.5557C9.02814 17.1671 8.96246 16.8989 8.93236 16.4775C8.88583 15.662 9.22518 14.6083 9.36202 13.4562C9.52348 12.3041 9.46601 10.9987 9.02541 9.84107C8.92689 9.58382 8.81742 9.33205 8.69427 9.08301C8.94057 9.20616 9.19508 9.31837 9.45233 9.41415C10.6099 9.85202 11.9153 9.90949 13.0675 9.75076C14.2196 9.61119 15.276 9.27458 16.0888 9.3211C16.5102 9.34847 16.7784 9.41415 17.167 9.66045C17.5529 9.89307 17.9114 10.1832 18.2151 10.5061C18.8309 11.1492 19.1949 11.9565 19.0827 12.5996C19.058 12.7638 19.006 12.9226 18.9267 13.0786C18.861 13.2181 18.7105 13.4343 18.664 13.4699C18.4806 13.6368 18.1084 13.7983 17.7362 13.8421C17.364 13.8804 16.9836 13.8558 16.71 13.7381C16.4308 13.6286 16.2393 13.4945 16.0805 13.2181C15.7631 12.6571 15.7877 11.7102 16.242 10.8564L15.6126 10.268C14.5973 10.9631 13.9104 12.3944 14.3564 13.8804C14.5699 14.6138 15.1939 15.3144 15.9136 15.6072C16.6334 15.922 17.3723 15.9466 18.0564 15.8316C18.7406 15.6921 19.4138 15.4485 20.0241 14.8793C20.3525 14.529 20.4948 14.2827 20.6727 13.9461C20.8341 13.6231 20.9546 13.2619 21.0066 12.8952C21.1215 12.1536 20.9792 11.4092 20.7083 10.7907C20.4373 10.164 20.0542 9.63582 19.6191 9.17606C19.1839 8.71903 18.6941 8.33043 18.1577 8.0075L18.1632 8.00203Z" fill="#02592E"/>
<path d="M19.0665 45.3001C19.1349 45.5847 19.2443 45.9542 19.4113 46.2716C19.5727 46.5946 19.7807 46.8847 20.0024 47.1364C20.9219 48.1244 21.8715 48.6525 22.6323 49.2847C23.4068 49.8977 24.0007 50.5682 24.4741 51.3618C24.9311 52.1993 25.3581 53.075 25.7822 54H26.5211H27.26C27.6815 53.075 28.1112 52.202 28.5682 51.3618C29.0416 50.5655 29.6382 49.8977 30.41 49.2847C31.1708 48.6525 32.1204 48.1271 33.0426 47.1364C33.2643 46.8847 33.4723 46.5918 33.6338 46.2716C33.8007 45.9542 33.9102 45.5847 33.9786 45.3001C34.1291 44.6926 34.2002 44.0714 34.1838 43.4419C34.1674 42.8125 34.0634 42.1639 33.8116 41.5317C33.5626 40.9023 33.1384 40.2756 32.5336 39.8323C32.2353 39.6106 31.8987 39.4409 31.5539 39.326C31.1899 39.2138 30.9162 39.1399 30.4373 39.1235C29.5999 39.1536 28.954 39.4546 28.3711 39.8405C27.8046 40.2455 27.3011 40.7846 27.0137 41.5153C26.71 42.2323 26.7647 43.1683 27.1342 43.8387C27.8676 45.2043 29.3645 45.7298 30.5769 45.5026L30.607 44.6433C29.682 44.3614 28.9951 43.7101 28.8227 43.0889C28.7406 42.7796 28.7816 42.5498 28.9021 42.2761C29.0115 41.9997 29.2633 41.7151 29.5534 41.477C29.8462 41.2444 30.2239 41.0939 30.4729 41.0829C30.5304 41.0774 30.7904 41.124 30.9354 41.176C31.1023 41.2307 31.2501 41.3046 31.3842 41.4031C31.9206 41.7753 32.2326 42.6045 32.2517 43.4967C32.2654 43.94 32.2162 44.3998 32.1067 44.8376C32.0054 45.2864 31.8604 45.5218 31.584 45.8392C31.0421 46.4495 30.0542 46.9558 29.1429 47.6728C28.2151 48.3734 27.3312 49.3395 26.8249 50.467C26.7127 50.716 26.6115 50.976 26.5239 51.236C26.4363 50.9732 26.3351 50.716 26.2228 50.467C25.7138 49.3395 24.8326 48.3734 23.9049 47.6728C22.9936 46.9558 22.0056 46.4495 21.4638 45.8392C21.1846 45.5218 21.0423 45.2864 20.9411 44.8376C20.8343 44.3998 20.7851 43.9427 20.796 43.4967C20.8152 42.6045 21.1272 41.778 21.6636 41.4031C21.7949 41.3046 21.9454 41.2307 22.1124 41.176C22.2574 41.124 22.5174 41.0774 22.5749 41.0829C22.8212 41.0939 23.1988 41.2444 23.4917 41.477C23.7817 41.7123 24.0362 41.9997 24.143 42.2761C24.2634 42.5498 24.3044 42.7796 24.2223 43.0889C24.0499 43.7101 23.363 44.3614 22.438 44.6433L22.4681 45.5026C23.6777 45.7298 25.1747 45.2043 25.9109 43.8387C26.2803 43.1683 26.3323 42.2323 26.0313 41.5153C25.7467 40.7819 25.2404 40.2428 24.6739 39.8405C24.091 39.4546 23.4451 39.1508 22.6077 39.1235C22.1288 39.1371 21.8524 39.2138 21.4911 39.326C21.1463 39.4409 20.8097 39.6106 20.5114 39.8323C19.9066 40.2756 19.4824 40.9023 19.2334 41.5317C18.9816 42.1666 18.8776 42.8125 18.8612 43.4419C18.8448 44.0741 18.9159 44.6953 19.0665 45.3001Z" fill="#02592E"/>
<path d="M7.61631 35.4508C7.46306 35.6999 7.28244 36.0392 7.17297 36.3813C7.06077 36.7234 7.00056 37.0764 6.97867 37.4103C6.92941 38.7595 7.22771 39.8049 7.32075 40.7901C7.43569 41.7698 7.38096 42.6647 7.15382 43.5623C6.88562 44.4764 6.56817 45.3986 6.2124 46.351L6.73784 46.8737L7.26055 47.3991C8.21291 47.0434 9.13517 46.7287 10.0492 46.4577C10.9468 46.2306 11.8417 46.1786 12.8215 46.2908C13.8067 46.3838 14.8521 46.6821 16.2013 46.6329C16.5379 46.611 16.8882 46.5508 17.2302 46.4386C17.5723 46.3318 17.9117 46.1485 18.1607 45.9952C18.6971 45.6723 19.187 45.2837 19.6221 44.8267C20.0545 44.3697 20.4404 43.8387 20.7113 43.212C20.9822 42.5908 21.1245 41.8492 21.0096 41.1075C20.9548 40.7408 20.8372 40.3796 20.6757 40.0567C20.4978 39.72 20.3555 39.4737 20.0271 39.1235C19.4141 38.5515 18.7436 38.3107 18.0595 38.1711C17.3725 38.0561 16.6364 38.0808 15.9166 38.3955C15.1969 38.6883 14.5702 39.3889 14.3595 40.1223C13.9134 41.6084 14.6003 43.0369 15.6156 43.7347L16.245 43.1464C15.7908 42.2925 15.7661 41.3456 16.0836 40.7846C16.245 40.5082 16.4366 40.3741 16.713 40.2646C16.9839 40.147 17.3671 40.1223 17.7393 40.1607C18.1114 40.2044 18.4836 40.3659 18.667 40.5328C18.7135 40.5684 18.8613 40.7846 18.9297 40.9242C19.0091 41.0802 19.0611 41.2389 19.0857 41.4031C19.2006 42.0462 18.8367 42.8508 18.2182 43.4967C17.9144 43.8196 17.5532 44.1097 17.17 44.3423C16.7814 44.5858 16.5132 44.6515 16.0918 44.6816C15.2763 44.7282 14.2226 44.3888 13.0705 44.252C11.9184 44.0905 10.613 44.148 9.45536 44.5886C9.19811 44.6871 8.94634 44.7966 8.6973 44.9197C8.82045 44.6734 8.93265 44.4189 9.02844 44.1617C9.4663 43.0041 9.52377 41.6987 9.36505 40.5465C9.22548 39.3944 8.88887 38.338 8.93539 37.5252C8.96276 37.1038 9.02844 36.8356 9.27474 36.447C9.50735 36.0611 9.79744 35.7026 10.1204 35.3988C10.7635 34.7831 11.5708 34.4191 12.2139 34.5313C12.3781 34.5559 12.5368 34.6079 12.6928 34.6873C12.8324 34.753 13.0486 34.9035 13.0842 34.95C13.2511 35.1334 13.4126 35.5056 13.4564 35.8778C13.4947 36.25 13.4701 36.6303 13.3524 36.904C13.2429 37.1832 13.1088 37.3747 12.8324 37.5334C12.2714 37.8509 11.3245 37.8263 10.4707 37.372L9.88228 38.0014C10.5774 39.0167 12.0087 39.7036 13.4947 39.2575C14.2281 39.0441 14.9287 38.4201 15.2215 37.7004C15.5362 36.9806 15.5609 36.2417 15.4459 35.5576C15.3064 34.8734 15.0628 34.2002 14.4936 33.5899C14.1433 33.2615 13.897 33.1192 13.5604 32.9413C13.2374 32.7799 12.8762 32.6594 12.5095 32.6074C11.7678 32.4925 11.0235 32.6348 10.405 32.9057C9.77829 33.1767 9.25011 33.5598 8.79035 33.9949C8.33332 34.4301 7.94472 34.9199 7.62179 35.4563L7.61631 35.4508Z" fill="#02592E"/>
<path d="M34.8815 45.998C35.1306 46.1512 35.4699 46.3319 35.812 46.4413C36.1541 46.5535 36.5071 46.6137 36.841 46.6356C38.1902 46.6849 39.2356 46.3866 40.2208 46.2935C41.2005 46.1786 42.0954 46.2333 42.993 46.4605C43.9071 46.7287 44.8293 47.0461 45.7817 47.4019L46.3044 46.8764L46.8298 46.3537C46.4741 45.4014 46.1594 44.4791 45.8884 43.5651C45.6613 42.6674 45.6093 41.7726 45.7215 40.7928C45.8145 39.8076 46.1128 38.7622 46.0636 37.413C46.0417 37.0764 45.9815 36.7261 45.8693 36.3841C45.7625 36.042 45.5792 35.7026 45.4259 35.4536C45.103 34.9172 44.7144 34.4273 44.2574 33.9922C43.8003 33.5598 43.2694 33.1739 42.6427 32.903C42.0215 32.6321 41.2799 32.4898 40.5382 32.6047C40.1715 32.6594 39.8103 32.7771 39.4874 32.9386C39.1507 33.1165 38.9044 33.2588 38.5541 33.5872C37.9822 34.2002 37.7414 34.8707 37.6018 35.5548C37.4868 36.2417 37.5115 36.9779 37.8262 37.6977C38.119 38.4174 38.8196 39.0441 39.553 39.2548C41.039 39.7009 42.4676 39.014 43.1654 37.9987L42.5771 37.3693C41.7232 37.8235 40.7763 37.8482 40.2153 37.5307C39.9389 37.3693 39.8048 37.1777 39.6953 36.9013C39.5777 36.6304 39.553 36.2472 39.5913 35.875C39.6351 35.5028 39.7966 35.1307 39.9635 34.9473C39.9991 34.9008 40.2153 34.753 40.3549 34.6846C40.5109 34.6052 40.6696 34.5532 40.8338 34.5286C41.4769 34.4136 42.2815 34.7776 42.9273 35.3961C43.2503 35.6999 43.5404 36.0611 43.773 36.4443C44.0165 36.8329 44.0822 37.1011 44.1123 37.5225C44.1589 38.338 43.8195 39.3917 43.6827 40.5438C43.5212 41.6959 43.5787 43.0013 44.0193 44.1589C44.1178 44.4162 44.2273 44.668 44.3504 44.917C44.1041 44.7938 43.8496 44.6816 43.5924 44.5859C42.4347 44.148 41.1294 44.0905 39.9772 44.2492C38.8251 44.3888 37.7687 44.7254 36.9559 44.6789C36.5345 44.6515 36.2663 44.5859 35.8777 44.3396C35.4918 44.1069 35.1333 43.8168 34.8295 43.4939C34.2138 42.8508 33.8498 42.0435 33.962 41.4004C33.9866 41.2362 34.0386 41.0774 34.118 40.9215C34.1837 40.7819 34.3342 40.5657 34.3807 40.5301C34.5641 40.3632 34.9363 40.2017 35.3085 40.1579C35.6806 40.1196 36.061 40.1442 36.3347 40.2619C36.6138 40.3714 36.8054 40.5055 36.9641 40.7819C37.2816 41.3429 37.257 42.2898 36.8027 43.1436L37.4321 43.732C38.4474 43.0369 39.1343 41.6056 38.6882 40.1196C38.4748 39.3862 37.8508 38.6856 37.1311 38.3928C36.4113 38.078 35.6724 38.0534 34.9883 38.1684C34.3041 38.3079 33.6309 38.5515 33.0206 39.1207C32.6922 39.471 32.5499 39.7173 32.372 40.0539C32.2105 40.3769 32.0901 40.7381 32.0381 41.1048C31.9232 41.8464 32.0655 42.5908 32.3364 43.2093C32.6074 43.836 32.9905 44.3642 33.4256 44.8239C33.8608 45.281 34.3506 45.6696 34.887 45.9925L34.8815 45.998Z" fill="#02592E"/>
</svg>
